<mxfile host="Electron" modified="2024-05-30T01:48:22.682Z" agent="Mozilla/5.0 (Windows NT 10.0; Win64; x64) AppleWebKit/537.36 (KHTML, like Gecko) draw.io/22.1.2 Chrome/114.0.5735.289 Electron/25.9.4 Safari/537.36" etag="0lEfe9Gxmp-L9tRHv_wb" version="22.1.2" type="device">
  <diagram name="第 1 页" id="9-7KcAe1bOmJOHwAuTfG">
    <mxGraphModel dx="5720" dy="449" grid="1" gridSize="10" guides="1" tooltips="1" connect="1" arrows="1" fold="1" page="1" pageScale="1" pageWidth="827" pageHeight="1169" math="1" shadow="0">
      <root>
        <mxCell id="0" />
        <mxCell id="1" parent="0" />
        <mxCell id="Yz5-bTRNJnURZ3xr9GPD-5" value="" style="rounded=1;whiteSpace=wrap;html=1;fillColor=#dae8fc;strokeColor=#6c8ebf;glass=0;opacity=50;strokeWidth=2;" parent="1" vertex="1">
          <mxGeometry x="-2880" y="1480" width="1820" height="480" as="geometry" />
        </mxCell>
        <mxCell id="FAvAPjS8OryQLuNxzAiB-43" value="" style="rounded=1;whiteSpace=wrap;html=1;fillColor=#f5f5f5;strokeColor=#666666;glass=0;opacity=50;fontColor=#333333;strokeWidth=2;" parent="1" vertex="1">
          <mxGeometry x="-2810" y="1340" width="320" height="920" as="geometry" />
        </mxCell>
        <mxCell id="FAvAPjS8OryQLuNxzAiB-27" value="" style="rounded=1;whiteSpace=wrap;html=1;fillColor=#ffe6cc;strokeColor=#d79b00;glass=0;opacity=50;strokeWidth=2;" parent="1" vertex="1">
          <mxGeometry x="-1539.99" y="1280" width="320" height="960" as="geometry" />
        </mxCell>
        <mxCell id="FAvAPjS8OryQLuNxzAiB-6" style="edgeStyle=orthogonalEdgeStyle;rounded=0;orthogonalLoop=1;jettySize=auto;html=1;strokeWidth=2;entryX=0;entryY=0.5;entryDx=0;entryDy=0;" parent="1" source="FAvAPjS8OryQLuNxzAiB-19" target="FAvAPjS8OryQLuNxzAiB-4" edge="1">
          <mxGeometry relative="1" as="geometry">
            <mxPoint x="-2256.25" y="1555.0000000000005" as="targetPoint" />
          </mxGeometry>
        </mxCell>
        <mxCell id="FAvAPjS8OryQLuNxzAiB-45" style="edgeStyle=orthogonalEdgeStyle;rounded=0;orthogonalLoop=1;jettySize=auto;html=1;entryX=0;entryY=0.5;entryDx=0;entryDy=0;strokeWidth=2;" parent="1" source="FAvAPjS8OryQLuNxzAiB-46" target="FAvAPjS8OryQLuNxzAiB-5" edge="1">
          <mxGeometry relative="1" as="geometry">
            <mxPoint x="-2256.25" y="1775" as="targetPoint" />
            <Array as="points" />
          </mxGeometry>
        </mxCell>
        <mxCell id="FAvAPjS8OryQLuNxzAiB-53" style="edgeStyle=orthogonalEdgeStyle;rounded=0;orthogonalLoop=1;jettySize=auto;html=1;strokeWidth=2;endArrow=none;endFill=0;" parent="1" source="FAvAPjS8OryQLuNxzAiB-1" target="FAvAPjS8OryQLuNxzAiB-19" edge="1">
          <mxGeometry relative="1" as="geometry" />
        </mxCell>
        <mxCell id="FAvAPjS8OryQLuNxzAiB-1" value="&lt;span style=&quot;font-size: 21px;&quot;&gt;&lt;b&gt;TripletMatrix&amp;lt;N&amp;gt;&lt;/b&gt;&lt;/span&gt;" style="whiteSpace=wrap;html=1;fillColor=#d5e8d4;strokeColor=#82b366;strokeWidth=2;" parent="1" vertex="1">
          <mxGeometry x="-2760" y="1520" width="200" height="70" as="geometry" />
        </mxCell>
        <mxCell id="FAvAPjS8OryQLuNxzAiB-3" value="&lt;font style=&quot;font-size: 19px;&quot;&gt;&lt;b&gt;non-unique&lt;br&gt;triplet&lt;/b&gt;&lt;/font&gt;" style="shape=process;whiteSpace=wrap;html=1;backgroundOutline=1;fillColor=#d5e8d4;strokeColor=#82b366;strokeWidth=2;" parent="1" vertex="1">
          <mxGeometry x="-2760" y="1600" width="200" height="110" as="geometry" />
        </mxCell>
        <mxCell id="FAvAPjS8OryQLuNxzAiB-9" style="edgeStyle=orthogonalEdgeStyle;rounded=0;orthogonalLoop=1;jettySize=auto;html=1;entryX=0.5;entryY=0;entryDx=0;entryDy=0;strokeWidth=2;" parent="1" source="FAvAPjS8OryQLuNxzAiB-21" target="FAvAPjS8OryQLuNxzAiB-5" edge="1">
          <mxGeometry relative="1" as="geometry" />
        </mxCell>
        <mxCell id="FAvAPjS8OryQLuNxzAiB-14" style="edgeStyle=orthogonalEdgeStyle;rounded=0;orthogonalLoop=1;jettySize=auto;html=1;strokeWidth=2;" parent="1" source="FAvAPjS8OryQLuNxzAiB-33" target="FAvAPjS8OryQLuNxzAiB-13" edge="1">
          <mxGeometry relative="1" as="geometry" />
        </mxCell>
        <mxCell id="FAvAPjS8OryQLuNxzAiB-17" style="edgeStyle=orthogonalEdgeStyle;rounded=0;orthogonalLoop=1;jettySize=auto;html=1;entryX=0;entryY=0.5;entryDx=0;entryDy=0;strokeWidth=2;" parent="1" source="FAvAPjS8OryQLuNxzAiB-31" target="FAvAPjS8OryQLuNxzAiB-16" edge="1">
          <mxGeometry relative="1" as="geometry">
            <Array as="points">
              <mxPoint x="-1470" y="1350" />
            </Array>
          </mxGeometry>
        </mxCell>
        <mxCell id="FAvAPjS8OryQLuNxzAiB-24" style="edgeStyle=orthogonalEdgeStyle;rounded=0;orthogonalLoop=1;jettySize=auto;html=1;endArrow=none;endFill=0;strokeWidth=2;" parent="1" source="FAvAPjS8OryQLuNxzAiB-4" target="FAvAPjS8OryQLuNxzAiB-21" edge="1">
          <mxGeometry relative="1" as="geometry" />
        </mxCell>
        <mxCell id="FAvAPjS8OryQLuNxzAiB-4" value="&lt;span style=&quot;font-size: 21px;&quot;&gt;&lt;b&gt;BCOOMatrix&lt;/b&gt;&lt;/span&gt;" style="whiteSpace=wrap;html=1;fillColor=#dae8fc;strokeColor=#6c8ebf;strokeWidth=2;" parent="1" vertex="1">
          <mxGeometry x="-2196.25" y="1520" width="206.25" height="70" as="geometry" />
        </mxCell>
        <mxCell id="FAvAPjS8OryQLuNxzAiB-12" style="edgeStyle=orthogonalEdgeStyle;rounded=0;orthogonalLoop=1;jettySize=auto;html=1;entryX=0;entryY=0.5;entryDx=0;entryDy=0;strokeWidth=2;" parent="1" source="FAvAPjS8OryQLuNxzAiB-25" target="FAvAPjS8OryQLuNxzAiB-10" edge="1">
          <mxGeometry relative="1" as="geometry" />
        </mxCell>
        <mxCell id="FAvAPjS8OryQLuNxzAiB-5" value="&lt;span style=&quot;font-size: 21px;&quot;&gt;&lt;b&gt;COOMatrix&lt;/b&gt;&lt;/span&gt;" style="whiteSpace=wrap;html=1;fillColor=#dae8fc;strokeColor=#6c8ebf;strokeWidth=2;" parent="1" vertex="1">
          <mxGeometry x="-2196.25" y="1740" width="206.25" height="70" as="geometry" />
        </mxCell>
        <mxCell id="FAvAPjS8OryQLuNxzAiB-7" value="&lt;span style=&quot;font-size: 19px;&quot;&gt;&lt;b&gt;sorted unique triplet&lt;/b&gt;&lt;/span&gt;" style="shape=process;whiteSpace=wrap;html=1;backgroundOutline=1;fillColor=#dae8fc;strokeColor=#6c8ebf;strokeWidth=2;" parent="1" vertex="1">
          <mxGeometry x="-2196.25" y="1830" width="206.25" height="110" as="geometry" />
        </mxCell>
        <mxCell id="FAvAPjS8OryQLuNxzAiB-10" value="&lt;span style=&quot;font-size: 21px;&quot;&gt;&lt;b&gt;CSRMatrix&lt;/b&gt;&lt;/span&gt;" style="whiteSpace=wrap;html=1;fillColor=#e1d5e7;strokeColor=#9673a6;strokeWidth=2;" parent="1" vertex="1">
          <mxGeometry x="-1480" y="1740" width="200" height="70" as="geometry" />
        </mxCell>
        <mxCell id="FAvAPjS8OryQLuNxzAiB-11" value="&lt;span style=&quot;font-size: 19px;&quot;&gt;&lt;b&gt;sorted unique compressed&lt;/b&gt;&lt;/span&gt;" style="shape=process;whiteSpace=wrap;html=1;backgroundOutline=1;fillColor=#e1d5e7;strokeColor=#9673a6;strokeWidth=2;" parent="1" vertex="1">
          <mxGeometry x="-1800" y="1610" width="200" height="110" as="geometry" />
        </mxCell>
        <mxCell id="FAvAPjS8OryQLuNxzAiB-15" style="edgeStyle=orthogonalEdgeStyle;rounded=0;orthogonalLoop=1;jettySize=auto;html=1;strokeWidth=2;" parent="1" source="FAvAPjS8OryQLuNxzAiB-13" target="FAvAPjS8OryQLuNxzAiB-10" edge="1">
          <mxGeometry relative="1" as="geometry" />
        </mxCell>
        <mxCell id="FAvAPjS8OryQLuNxzAiB-13" value="&lt;span style=&quot;font-size: 21px;&quot;&gt;&lt;b&gt;BSRMatrix&lt;/b&gt;&lt;/span&gt;" style="whiteSpace=wrap;html=1;fillColor=#e1d5e7;strokeColor=#9673a6;strokeWidth=2;" parent="1" vertex="1">
          <mxGeometry x="-1800" y="1520" width="200" height="70" as="geometry" />
        </mxCell>
        <mxCell id="FAvAPjS8OryQLuNxzAiB-16" value="&lt;span style=&quot;font-size: 21px;&quot;&gt;&lt;b&gt;DenseMatrix&lt;/b&gt;&lt;/span&gt;" style="whiteSpace=wrap;html=1;fillColor=#fff2cc;strokeColor=#d6b656;strokeWidth=2;" parent="1" vertex="1">
          <mxGeometry x="-1480" y="1314" width="200" height="70" as="geometry" />
        </mxCell>
        <mxCell id="FAvAPjS8OryQLuNxzAiB-19" value="&lt;b style=&quot;&quot;&gt;&lt;font style=&quot;font-size: 25px;&quot; color=&quot;#ff8000&quot;&gt;Sort and &lt;br&gt;Make Unique&lt;/font&gt;&lt;/b&gt;" style="text;html=1;align=center;verticalAlign=middle;resizable=0;points=[];autosize=1;strokeColor=none;fillColor=none;strokeWidth=2;" parent="1" vertex="1">
          <mxGeometry x="-2460" y="1520" width="180" height="70" as="geometry" />
        </mxCell>
        <mxCell id="FAvAPjS8OryQLuNxzAiB-21" value="&lt;font color=&quot;#ff8000&quot;&gt;&lt;span style=&quot;font-size: 25px;&quot;&gt;&lt;b&gt;Expand &lt;br&gt;and Sort&lt;/b&gt;&lt;/span&gt;&lt;/font&gt;" style="text;html=1;align=center;verticalAlign=middle;resizable=0;points=[];autosize=1;strokeColor=none;fillColor=none;strokeWidth=2;" parent="1" vertex="1">
          <mxGeometry x="-2153.12" y="1640" width="120" height="70" as="geometry" />
        </mxCell>
        <mxCell id="FAvAPjS8OryQLuNxzAiB-26" value="" style="edgeStyle=orthogonalEdgeStyle;rounded=0;orthogonalLoop=1;jettySize=auto;html=1;entryX=0;entryY=0.5;entryDx=0;entryDy=0;strokeWidth=2;endArrow=none;endFill=0;" parent="1" source="FAvAPjS8OryQLuNxzAiB-5" target="FAvAPjS8OryQLuNxzAiB-25" edge="1">
          <mxGeometry relative="1" as="geometry">
            <mxPoint x="-1990" y="1775" as="sourcePoint" />
            <mxPoint x="-1590" y="1775" as="targetPoint" />
          </mxGeometry>
        </mxCell>
        <mxCell id="FAvAPjS8OryQLuNxzAiB-25" value="&lt;font color=&quot;#ff8000&quot;&gt;&lt;span style=&quot;font-size: 25px;&quot;&gt;&lt;b&gt;Scan&lt;br&gt;&lt;/b&gt;&lt;/span&gt;&lt;/font&gt;" style="text;html=1;align=center;verticalAlign=middle;resizable=0;points=[];autosize=1;strokeColor=none;fillColor=none;strokeWidth=2;" parent="1" vertex="1">
          <mxGeometry x="-1830" y="1755" width="80" height="40" as="geometry" />
        </mxCell>
        <mxCell id="FAvAPjS8OryQLuNxzAiB-30" value="&lt;span style=&quot;font-size: 25px;&quot;&gt;&lt;b style=&quot;&quot;&gt;Direct Solver Support&lt;/b&gt;&lt;/span&gt;" style="text;html=1;align=center;verticalAlign=middle;resizable=0;points=[];autosize=1;strokeColor=none;fillColor=none;strokeWidth=2;" parent="1" vertex="1">
          <mxGeometry x="-1520" y="1220" width="280" height="40" as="geometry" />
        </mxCell>
        <mxCell id="FAvAPjS8OryQLuNxzAiB-32" value="" style="edgeStyle=orthogonalEdgeStyle;rounded=0;orthogonalLoop=1;jettySize=auto;html=1;entryX=0;entryY=0.5;entryDx=0;entryDy=0;endArrow=none;endFill=0;strokeWidth=2;" parent="1" source="FAvAPjS8OryQLuNxzAiB-4" target="FAvAPjS8OryQLuNxzAiB-31" edge="1">
          <mxGeometry relative="1" as="geometry">
            <mxPoint x="-2100" y="1520" as="sourcePoint" />
            <mxPoint x="-1513" y="1395" as="targetPoint" />
            <Array as="points">
              <mxPoint x="-2093" y="1350" />
            </Array>
          </mxGeometry>
        </mxCell>
        <mxCell id="FAvAPjS8OryQLuNxzAiB-31" value="&lt;font color=&quot;#ff8000&quot;&gt;&lt;span style=&quot;font-size: 25px;&quot;&gt;&lt;b&gt;Fill&lt;/b&gt;&lt;/span&gt;&lt;/font&gt;" style="text;html=1;align=center;verticalAlign=middle;resizable=0;points=[];autosize=1;strokeColor=none;fillColor=none;strokeWidth=2;" parent="1" vertex="1">
          <mxGeometry x="-1840" y="1330" width="60" height="40" as="geometry" />
        </mxCell>
        <mxCell id="FAvAPjS8OryQLuNxzAiB-34" value="" style="edgeStyle=orthogonalEdgeStyle;rounded=0;orthogonalLoop=1;jettySize=auto;html=1;endArrow=none;endFill=0;strokeWidth=2;" parent="1" source="FAvAPjS8OryQLuNxzAiB-4" target="FAvAPjS8OryQLuNxzAiB-33" edge="1">
          <mxGeometry relative="1" as="geometry">
            <mxPoint x="-1990" y="1555" as="sourcePoint" />
            <mxPoint x="-1800" y="1555" as="targetPoint" />
          </mxGeometry>
        </mxCell>
        <mxCell id="FAvAPjS8OryQLuNxzAiB-33" value="&lt;font color=&quot;#ff8000&quot;&gt;&lt;span style=&quot;font-size: 25px;&quot;&gt;&lt;b&gt;Scan&lt;br&gt;&lt;/b&gt;&lt;/span&gt;&lt;/font&gt;" style="text;html=1;align=center;verticalAlign=middle;resizable=0;points=[];autosize=1;strokeColor=none;fillColor=none;strokeWidth=2;" parent="1" vertex="1">
          <mxGeometry x="-1930" y="1535" width="80" height="40" as="geometry" />
        </mxCell>
        <mxCell id="FAvAPjS8OryQLuNxzAiB-40" style="edgeStyle=orthogonalEdgeStyle;rounded=0;orthogonalLoop=1;jettySize=auto;html=1;strokeWidth=2;" parent="1" source="Yz5-bTRNJnURZ3xr9GPD-3" target="FAvAPjS8OryQLuNxzAiB-39" edge="1">
          <mxGeometry relative="1" as="geometry">
            <Array as="points">
              <mxPoint x="-1760" y="2030" />
              <mxPoint x="-1380" y="2030" />
            </Array>
          </mxGeometry>
        </mxCell>
        <mxCell id="FAvAPjS8OryQLuNxzAiB-37" value="&lt;span style=&quot;font-size: 21px;&quot;&gt;&lt;b&gt;DoubletVector&lt;/b&gt;&lt;/span&gt;" style="whiteSpace=wrap;html=1;fillColor=#d5e8d4;strokeColor=#82b366;strokeWidth=2;" parent="1" vertex="1">
          <mxGeometry x="-2750" y="2005" width="200" height="70" as="geometry" />
        </mxCell>
        <mxCell id="FAvAPjS8OryQLuNxzAiB-38" value="&lt;font style=&quot;font-size: 19px;&quot;&gt;&lt;b&gt;non-unique&lt;br&gt;doublet&lt;br&gt;&lt;/b&gt;&lt;/font&gt;" style="shape=process;whiteSpace=wrap;html=1;backgroundOutline=1;fillColor=#d5e8d4;strokeColor=#82b366;strokeWidth=2;" parent="1" vertex="1">
          <mxGeometry x="-2750" y="2120" width="200" height="110" as="geometry" />
        </mxCell>
        <mxCell id="FAvAPjS8OryQLuNxzAiB-39" value="&lt;span style=&quot;font-size: 21px;&quot;&gt;&lt;b&gt;DenseVector&lt;/b&gt;&lt;/span&gt;" style="whiteSpace=wrap;html=1;fillColor=#fff2cc;strokeColor=#d6b656;strokeWidth=2;" parent="1" vertex="1">
          <mxGeometry x="-1479.99" y="2005" width="200" height="70" as="geometry" />
        </mxCell>
        <mxCell id="FAvAPjS8OryQLuNxzAiB-42" value="" style="edgeStyle=orthogonalEdgeStyle;rounded=0;orthogonalLoop=1;jettySize=auto;html=1;endArrow=none;endFill=0;strokeWidth=2;" parent="1" source="FAvAPjS8OryQLuNxzAiB-37" target="FAvAPjS8OryQLuNxzAiB-41" edge="1">
          <mxGeometry relative="1" as="geometry">
            <mxPoint x="-2470" y="2025" as="sourcePoint" />
            <mxPoint x="-1483" y="2025" as="targetPoint" />
          </mxGeometry>
        </mxCell>
        <mxCell id="FAvAPjS8OryQLuNxzAiB-41" value="&lt;b style=&quot;&quot;&gt;&lt;font style=&quot;font-size: 25px;&quot; color=&quot;#ff8000&quot;&gt;Sort&lt;br&gt;Make Unique&lt;br&gt;&lt;/font&gt;&lt;/b&gt;" style="text;html=1;align=center;verticalAlign=middle;resizable=0;points=[];autosize=1;strokeColor=none;fillColor=none;strokeWidth=2;" parent="1" vertex="1">
          <mxGeometry x="-2470" y="2005" width="180" height="70" as="geometry" />
        </mxCell>
        <mxCell id="FAvAPjS8OryQLuNxzAiB-44" value="&lt;span style=&quot;font-size: 25px;&quot;&gt;&lt;b style=&quot;&quot;&gt;Assembly-Friendly&lt;/b&gt;&lt;/span&gt;" style="text;html=1;align=center;verticalAlign=middle;resizable=0;points=[];autosize=1;strokeColor=none;fillColor=none;strokeWidth=2;" parent="1" vertex="1">
          <mxGeometry x="-2770" y="1274" width="250" height="40" as="geometry" />
        </mxCell>
        <mxCell id="FAvAPjS8OryQLuNxzAiB-46" value="&lt;font color=&quot;#ff8000&quot;&gt;&lt;span style=&quot;font-size: 25px;&quot;&gt;&lt;b&gt;Sort &lt;br&gt;Make Unique&lt;/b&gt;&lt;/span&gt;&lt;/font&gt;" style="text;html=1;align=center;verticalAlign=middle;resizable=0;points=[];autosize=1;strokeColor=none;fillColor=none;strokeWidth=2;" parent="1" vertex="1">
          <mxGeometry x="-2460" y="1740" width="180" height="70" as="geometry" />
        </mxCell>
        <mxCell id="FAvAPjS8OryQLuNxzAiB-55" style="edgeStyle=orthogonalEdgeStyle;rounded=0;orthogonalLoop=1;jettySize=auto;html=1;strokeWidth=2;endArrow=none;endFill=0;" parent="1" source="FAvAPjS8OryQLuNxzAiB-54" target="FAvAPjS8OryQLuNxzAiB-46" edge="1">
          <mxGeometry relative="1" as="geometry" />
        </mxCell>
        <mxCell id="FAvAPjS8OryQLuNxzAiB-54" value="&lt;span style=&quot;font-size: 21px;&quot;&gt;&lt;b&gt;TripletMatrix&amp;lt;1&amp;gt;&lt;/b&gt;&lt;/span&gt;" style="whiteSpace=wrap;html=1;fillColor=#d5e8d4;strokeColor=#82b366;strokeWidth=2;" parent="1" vertex="1">
          <mxGeometry x="-2760" y="1740" width="200" height="70" as="geometry" />
        </mxCell>
        <mxCell id="Yz5-bTRNJnURZ3xr9GPD-2" value="" style="edgeStyle=orthogonalEdgeStyle;rounded=0;orthogonalLoop=1;jettySize=auto;html=1;strokeWidth=2;" parent="1" source="FAvAPjS8OryQLuNxzAiB-41" target="Yz5-bTRNJnURZ3xr9GPD-1" edge="1">
          <mxGeometry relative="1" as="geometry">
            <mxPoint x="-2290" y="1985" as="sourcePoint" />
            <mxPoint x="-1480" y="1985" as="targetPoint" />
            <Array as="points">
              <mxPoint x="-2170" y="2040" />
              <mxPoint x="-2170" y="2040" />
            </Array>
          </mxGeometry>
        </mxCell>
        <mxCell id="Yz5-bTRNJnURZ3xr9GPD-1" value="&lt;span style=&quot;font-size: 21px;&quot;&gt;&lt;b&gt;BCOOVector&lt;/b&gt;&lt;/span&gt;" style="whiteSpace=wrap;html=1;fillColor=#d5e8d4;strokeColor=#82b366;strokeWidth=2;" parent="1" vertex="1">
          <mxGeometry x="-2190" y="2005" width="200" height="70" as="geometry" />
        </mxCell>
        <mxCell id="Yz5-bTRNJnURZ3xr9GPD-4" value="" style="edgeStyle=orthogonalEdgeStyle;rounded=0;orthogonalLoop=1;jettySize=auto;html=1;strokeWidth=2;endArrow=none;endFill=0;" parent="1" source="Yz5-bTRNJnURZ3xr9GPD-1" target="Yz5-bTRNJnURZ3xr9GPD-3" edge="1">
          <mxGeometry relative="1" as="geometry">
            <mxPoint x="-1993" y="1985" as="sourcePoint" />
            <mxPoint x="-1480" y="1985" as="targetPoint" />
            <Array as="points">
              <mxPoint x="-1760" y="2040" />
            </Array>
          </mxGeometry>
        </mxCell>
        <mxCell id="Yz5-bTRNJnURZ3xr9GPD-3" value="&lt;b style=&quot;&quot;&gt;&lt;font style=&quot;font-size: 25px;&quot; color=&quot;#ff8000&quot;&gt;Fill&lt;br&gt;&lt;/font&gt;&lt;/b&gt;" style="text;html=1;align=center;verticalAlign=middle;resizable=0;points=[];autosize=1;strokeColor=none;fillColor=none;strokeWidth=2;" parent="1" vertex="1">
          <mxGeometry x="-1780" y="2020" width="60" height="40" as="geometry" />
        </mxCell>
        <mxCell id="Yz5-bTRNJnURZ3xr9GPD-6" value="&lt;span style=&quot;font-size: 25px;&quot;&gt;&lt;b style=&quot;&quot;&gt;SpMV&lt;br&gt;&amp;nbsp;Support&lt;/b&gt;&lt;/span&gt;" style="text;html=1;align=center;verticalAlign=middle;resizable=0;points=[];autosize=1;strokeColor=none;fillColor=none;strokeWidth=2;" parent="1" vertex="1">
          <mxGeometry x="-1210" y="1650" width="130" height="70" as="geometry" />
        </mxCell>
      </root>
    </mxGraphModel>
  </diagram>
</mxfile>
